<svg width="1024" height="1024" viewBox="0 0 1024 1024" xmlns="http://www.w3.org/2000/svg">
  <defs>
    <linearGradient id="g" x1="0" y1="0" x2="1" y2="1">
      <stop offset="0%"   stop-color="#6366f1"/>
      <stop offset="50%"  stop-color="#8b5cf6"/>
      <stop offset="100%" stop-color="#06b6d4"/>
    </linearGradient>
  </defs>

  <rect x="112" y="112" width="800" height="800" rx="184" fill="url(#g)"/>

  <!-- 서버 → 죽방 3개로 뻗는 연결선 (노드/서버 뒤에 깔림) -->
  <g stroke="#ffffff" stroke-width="22" stroke-linecap="round">
    <line x1="512" y1="700" x2="300" y2="332"/>
    <line x1="512" y1="700" x2="512" y2="300"/>
    <line x1="512" y1="700" x2="724" y2="332"/>
  </g>

  <!-- 죽방 엠블럼 3개 (상단 노드) -->
  <g fill="#ffffff">
    <!-- 좌 -->
    <circle cx="300" cy="332" r="48"/>
    <path d="M300 366 L246 476 L354 476 Z"/>
    <!-- 중앙 -->
    <circle cx="512" cy="300" r="54"/>
    <path d="M512 336 L450 452 L574 452 Z"/>
    <!-- 우 -->
    <circle cx="724" cy="332" r="48"/>
    <path d="M724 366 L670 476 L778 476 Z"/>
  </g>

  <!-- 서버(하단) -->
  <rect x="356" y="690" width="312" height="150" rx="34" fill="#ffffff"/>
  <g fill="url(#g)">
    <circle cx="398" cy="732" r="13"/>
    <rect x="440" y="725" width="190" height="15" rx="7"/>
    <circle cx="398" cy="792" r="13"/>
    <rect x="440" y="785" width="190" height="15" rx="7"/>
  </g>
</svg>
